# xmcd CD database file
#
# Track frame offsets:
#	150
#	10058
#	26455
#	52544
#	74316
#	84976
#	96526
#	110889
#	127421
#	138660
#	150100
#	164489
#
# Disc length: 2420 seconds
#
# Revision: 0
# Processed by: cddbd v1.5.1PL2 Copyright (c) Steve Scherf et al.
# Submitted via: CDex 1.51
#
DISCID=9a09720c
DTITLE=B and the Buzz - B and the Buzz
DYEAR=2005
DGENRE=Jazz
TTITLE0=Bei Mir Bist Du Schoen
TTITLE1=Caldonia
TTITLE2=Bigger is Better
TTITLE3=Lemonade
TTITLE4=A Chicken Aint Nuthin but a Bird
TTITLE5=All for the Love of Lil
TTITLE6=Boogie Woogie Blue Plate
TTITLE7=Knock Me a Kiss
TTITLE8=Doncha Worry Bout that Mule
TTITLE9=Reet Petite and Gone
TTITLE10=A Penthouse in the Basement
TTITLE11=Water
EXTD=YEAR: 2005
EXTT0=
EXTT1=
EXTT2=
EXTT3=
EXTT4=
EXTT5=
EXTT6=
EXTT7=
EXTT8=
EXTT9=
EXTT10=
EXTT11=
PLAYORDER=
